<?xml version="1.0" encoding="UTF-8" standalone="no"?>
<!-- Created with Inkscape (http://www.inkscape.org/) -->

<svg
   width="2000"
   height="2000"
   viewBox="0 0 529.16665 529.16666"
   version="1.1"
   id="svg1"
   inkscape:version="1.3.2 (091e20ef0f, 2023-11-25, custom)"
   sodipodi:docname="Redot logo - red orange border fondo.svg"
   inkscape:export-filename="Redot logo - red orange border fondo.png"
   inkscape:export-xdpi="96"
   inkscape:export-ydpi="96"
   xmlns:inkscape="http://www.inkscape.org/namespaces/inkscape"
   xmlns:sodipodi="http://sodipodi.sourceforge.net/DTD/sodipodi-0.dtd"
   xmlns:xlink="http://www.w3.org/1999/xlink"
   xmlns="http://www.w3.org/2000/svg"
   xmlns:svg="http://www.w3.org/2000/svg"
   xmlns:rdf="http://www.w3.org/1999/02/22-rdf-syntax-ns#"
   xmlns:cc="http://creativecommons.org/ns#"
   xmlns:dc="http://purl.org/dc/elements/1.1/">
  <title
     id="title1">Redot Logo - Black</title>
  <sodipodi:namedview
     id="namedview1"
     pagecolor="#080808"
     bordercolor="#000000"
     borderopacity="0.25"
     inkscape:showpageshadow="2"
     inkscape:pageopacity="0.0"
     inkscape:pagecheckerboard="true"
     inkscape:deskcolor="#d1d1d1"
     inkscape:document-units="px"
     inkscape:zoom="0.22571399"
     inkscape:cx="660.12746"
     inkscape:cy="943.67214"
     inkscape:window-width="1366"
     inkscape:window-height="700"
     inkscape:window-x="0"
     inkscape:window-y="0"
     inkscape:window-maximized="1"
     inkscape:current-layer="layer1" />
  <defs
     id="defs1">
    <linearGradient
       id="linearGradient2"
       inkscape:collect="always">
      <stop
         style="stop-color:#000000;stop-opacity:1;"
         offset="0"
         id="stop2" />
      <stop
         style="stop-color:#1e1e1e;stop-opacity:1;"
         offset="1"
         id="stop3" />
    </linearGradient>
    <inkscape:path-effect
       effect="offset"
       id="path-effect11"
       is_visible="true"
       lpeversion="1.2"
       linejoin_type="miter"
       unit="mm"
       offset="0"
       miter_limit="4"
       attempt_force_join="false"
       update_on_knot_move="true" />
    <inkscape:path-effect
       effect="offset"
       id="path-effect10"
       is_visible="false"
       lpeversion="1.2"
       linejoin_type="miter"
       unit="mm"
       offset="0"
       miter_limit="4"
       attempt_force_join="false"
       update_on_knot_move="true" />
    <linearGradient
       id="linearGradient51"
       inkscape:collect="always">
      <stop
         style="stop-color:#ff1300;stop-opacity:1"
         offset="0"
         id="stop51" />
      <stop
         style="stop-color:#ff6e01;stop-opacity:1"
         offset="1"
         id="stop52" />
    </linearGradient>
    <linearGradient
       inkscape:collect="always"
       xlink:href="#linearGradient51"
       id="linearGradient1"
       gradientUnits="userSpaceOnUse"
       gradientTransform="matrix(4.9658842,0,0,4.9658842,-2156.743,-2544.2948)"
       x1="455.85126"
       y1="527.87988"
       x2="528.30664"
       y2="598.77032" />
    <radialGradient
       inkscape:collect="always"
       xlink:href="#linearGradient2"
       id="radialGradient3"
       cx="264.58334"
       cy="264.58334"
       fx="264.58334"
       fy="264.58334"
       r="264.58334"
       gradientUnits="userSpaceOnUse" />
  </defs>
  <g
     inkscape:label="Layer 1"
     inkscape:groupmode="layer"
     id="layer1"
     style="display:inline">
    <rect
       style="fill:url(#radialGradient3);stroke-width:18.5208;stroke-linecap:round;stroke-linejoin:round;stroke-miterlimit:6;paint-order:stroke fill markers"
       id="rect1"
       width="529.16669"
       height="529.16669"
       x="0"
       y="0" />
    <path
       id="path1"
       style="font-variation-settings:normal;display:inline;opacity:1;vector-effect:none;fill:#ffffff;fill-opacity:1;stroke-width:3.58848;stroke-linecap:butt;stroke-linejoin:miter;stroke-miterlimit:4;stroke-dasharray:none;stroke-dashoffset:0;stroke-opacity:1;-inkscape-stroke:none;stop-color:#000000;stop-opacity:1"
       inkscape:label="borde"
       inkscape:transform-center-x="0.62125148"
       inkscape:transform-center-y="9.9809009"
       d="m 198.31451,27.839644 -12.27367,38.785228 c -9.34773,4.043318 -18.69677,8.087109 -28.0448,12.13311 -11.78751,-2.538616 -24.12495,-5.374714 -36.48046,-6.865214 l -6.36706,-0.767912 -4.26175,4.795056 c -1.87228,2.10733 -45.9435,69.573698 -54.478328,83.320498 -0.954523,1.53741 -3.433557,2.49663 -3.314526,9.17928 l 0.04082,2.29133 0.867131,2.12287 c 2.888389,7.07413 7.622611,13.07283 10.424169,18.01596 l 2.265495,3.99562 11.198283,3.93412 -2.141988,17.53795 0.05116,-0.0827 c -0.667021,5.28791 1.883199,-16.10541 -5.844087,48.4079 l -0.161748,1.34152 -37.900528,37.55481 35.365283,124.01361 123.946954,50.84186 -0.0155,-0.23823 75.34165,30.69322 75.34217,-30.69322 -0.0155,0.23823 123.94695,-50.84186 35.36528,-124.01361 -37.90052,-37.55688 -0.1602,-1.33945 c -2.93287,-24.48579 -1.44737,-11.95424 -2.21795,-18.37304 l 0.0222,0.0424 -4.09071,-33.84031 -1.41903,-13.77228 10.96935,-3.85403 2.2655,-3.99562 c 2.80157,-4.94314 7.53578,-10.94183 10.42417,-18.01596 l 0.86506,-2.1208 0.0429,-2.28927 c 0.12149,-6.6861 -2.36001,-7.64599 -3.31452,-9.18341 -8.53468,-13.7468 -52.60605,-81.213168 -54.47833,-83.320498 l -4.26176,-4.795056 -6.36705,0.767912 c -12.35551,1.4905 -24.69294,4.326598 -36.48046,6.865214 -9.34825,-4.045974 -18.6986,-8.089725 -28.04687,-12.13311 L 334.7501,27.839644 Z" />
    <path
       id="path10"
       style="font-variation-settings:normal;display:inline;opacity:1;vector-effect:none;fill:url(#linearGradient1);fill-opacity:1;stroke-width:3.58848;stroke-linecap:butt;stroke-linejoin:miter;stroke-miterlimit:4;stroke-dasharray:none;stroke-dashoffset:0;stroke-opacity:1;-inkscape-stroke:none;stop-color:#000000;stop-opacity:1"
       d="M 207.29045,40.095445 196.03801,75.65265 c -12.25714,5.301862 -24.51436,10.602963 -36.76996,15.908313 -13.00437,-2.739309 -26.04214,-5.911642 -39.21993,-7.501339 -2.08031,2.341487 -54.71528,83.305696 -54.70038,84.142216 2.42498,5.93917 6.589641,11.04784 9.73959,16.60567 l 191.44472,67.25918 191.44471,-67.25918 c 3.14995,-5.55783 7.31461,-10.6665 9.73959,-16.60567 0.0152,-0.83652 -52.62094,-81.800729 -54.70125,-84.142216 -13.17779,1.589697 -26.21469,4.76203 -39.21906,7.501339 -12.25565,-5.30535 -24.5128,-10.606451 -36.76996,-15.908313 L 325.77277,40.095445 Z M 88.935892,209.66965 C 86.629929,228.47532 82.123169,266.099 82.123169,266.099 l 11.664578,50.43827 88.251203,40.10105 84.4931,-31.60221 84.49222,31.60221 88.25121,-40.10105 11.66544,-50.43827 c 0,0 -4.50676,-37.62368 -6.81272,-56.42935 -58.76464,19.72208 -118.5641,40.2456 -177.59615,60.53834 z m 42.206298,42.43554 82.61361,30.50499 c -0.42243,2.98672 -1.14414,5.9234 -2.15424,8.7657 -8.60738,23.31201 -34.48361,35.23196 -57.79523,26.62351 -23.31201,-8.60738 -35.23196,-34.48362 -26.6235,-57.79524 1.04533,-2.8254 2.37177,-5.53866 3.95936,-8.09896 z m 270.77971,0 c 1.58759,2.5603 2.91403,5.27356 3.95936,8.09896 8.60846,23.31162 -3.31149,49.18786 -26.6235,57.79524 -23.31161,8.60845 -49.18784,-3.3115 -57.79522,-26.62351 -1.0101,-2.8423 -1.73181,-5.77898 -2.15425,-8.7657 z m -335.064789,34.0391 -21.192397,20.9999 31.748356,111.32747 100.34364,41.1598 -5.39871,-86.60272 -95.160189,-44.28353 z m 399.348989,0 -10.33982,42.60092 -95.16017,44.28353 -5.39873,86.60272 100.34364,-41.1598 31.74836,-111.32747 z m -199.67405,57.34286 -75.24615,29.78047 4.56748,93.55368 70.67867,28.79524 70.67866,-28.79524 4.56748,-93.55368 z"
       inkscape:label="forma"
       sodipodi:nodetypes="cccccccccccccccccccccccccccccccccccccccccccccccccccccccccc" />
  </g>
  <metadata
     id="metadata1">
    <rdf:RDF>
      <cc:Work
         rdf:about="">
        <dc:title>Redot Logo - Black</dc:title>
        <dc:date>10th October, 2024</dc:date>
        <dc:creator>
          <cc:Agent>
            <dc:title>Joey Wheeler</dc:title>
          </cc:Agent>
        </dc:creator>
      </cc:Work>
    </rdf:RDF>
  </metadata>
</svg>
